<?xml version="1.0" encoding="iso-8859-1"?>
<!-- Generator: Adobe Illustrator 17.0.2, SVG Export Plug-In . SVG Version: 6.00 Build 0)  -->
<!DOCTYPE svg PUBLIC "-//W3C//DTD SVG 1.1//EN" "http://www.w3.org/Graphics/SVG/1.1/DTD/svg11.dtd">
<svg version="1.1" id="Capa_1" xmlns="http://www.w3.org/2000/svg" xmlns:xlink="http://www.w3.org/1999/xlink" x="0px" y="0px"
	 width="100px" height="100px" viewBox="0 0 100 100" style="enable-background:new 0 0 100 100;" xml:space="preserve">
<g>
	<path style="fill:#1D1D1B;" d="M86.525,13.239c-0.628-1.108-1.631-1.719-2.823-1.719c-0.67,0-1.346,0.196-1.906,0.542
		c-0.394,0.186-0.728,0.419-1.021,0.712C62.962,30.581,47.808,45.354,31.872,59.468l-8.365-10.157
		c-0.812-0.986-1.717-1.193-2.332-1.193c-0.74,0-1.497,0.3-2.073,0.799l-0.136,0.072c-4.532,2.914-8.77,5.359-12.955,7.474
		c-1.115,0.563-1.765,1.536-1.795,2.681c-0.517,1.267-0.215,2.602,0.817,3.589c3.744,3.582,7.225,7.541,10.592,11.37
		c3.681,4.187,7.487,8.516,11.664,12.385c0.148,0.139,0.311,0.265,0.494,0.386c0.621,0.829,1.491,1.302,2.399,1.302
		c0.646,0,1.279-0.23,1.882-0.685c11.676-8.81,22.093-18.754,29.864-26.433c2.281-2.255,4.572-4.506,6.865-6.759
		c8.03-7.891,16.334-16.051,24.189-24.333c0.43-0.452,0.722-0.976,0.868-1.557c0.688-1.066,0.656-2.318-0.094-3.45
		C91.043,20.872,88.677,17.038,86.525,13.239z M86.491,26.61c-5.786,6.037-11.85,12.014-17.715,17.798
		c-3.097,3.052-6.191,6.104-9.259,9.174c-8.76,8.768-18.331,18.015-28.99,26.303c-3.485-3.404-6.76-7.118-9.93-10.713
		c-2.473-2.804-5.025-5.697-7.673-8.441c2.392-1.305,4.819-2.726,7.391-4.327l8.678,10.535c0.813,0.989,1.721,1.196,2.339,1.196
		c0.79,0,1.581-0.333,2.236-0.939c0.232-0.132,0.44-0.279,0.632-0.448c17.042-14.93,33.405-30.952,48.565-46.071
		C83.862,22.498,85.087,24.448,86.491,26.61z"/>
</g>
</svg>
