<?xml version="1.0" encoding="utf-8"?>
<!-- Generator: Adobe Illustrator 17.1.0, SVG Export Plug-In . SVG Version: 6.00 Build 0)  -->
<!DOCTYPE svg PUBLIC "-//W3C//DTD SVG 1.1//EN" "http://www.w3.org/Graphics/SVG/1.1/DTD/svg11.dtd">
<svg version="1.1" id="Capa_1" xmlns="http://www.w3.org/2000/svg" xmlns:xlink="http://www.w3.org/1999/xlink" x="0px" y="0px"
	 viewBox="0 0 4252 4252" enable-background="new 0 0 4252 4252" xml:space="preserve">
<g>
	<path fill="#FFFFFF" d="M3619.2,1638c-233.9-8.5-1029.8-17-1816.4-21.3c-552.8-4.3-1010-8.5-1163.1-12.8
		c-4.3-131.8-12.8-259.4-29.8-382.7h148.8c676.1,0,2507.5,4.3,2843.4,8.5C3602.2,1361.7,3606.5,1493.5,3619.2,1638z"/>
	<path fill="#FFFFFF" d="M3619.2,2393.9c-233.9-8.5-1029.8-17-1816.4-21.3c-552.8-4.3-1010-8.5-1163.1-12.8
		c-4.3-131.8-12.8-259.4-29.8-382.7h165.8c671.8,0,2490.5,4.3,2826.4,8.5C3602.2,2113.2,3606.5,2249.3,3619.2,2393.9z"/>
	<path fill="#FFFFFF" d="M3619.2,3125.5c-233.9-8.5-1029.8-17-1812.1-21.3c-552.8-4.3-1010-8.5-1163.1-12.8
		c-4.3-131.8-12.8-259.4-29.8-382.7h182.8c667.6,0,2477.7,4.3,2813.6,8.5C3602.2,2849.2,3606.5,2981,3619.2,3125.5z"/>
</g>
</svg>
