<?xml version="1.0" encoding="iso-8859-1"?>
<!-- Generator: Adobe Illustrator 17.0.2, SVG Export Plug-In . SVG Version: 6.00 Build 0)  -->
<!DOCTYPE svg PUBLIC "-//W3C//DTD SVG 1.1//EN" "http://www.w3.org/Graphics/SVG/1.1/DTD/svg11.dtd">
<svg version="1.1" id="Capa_1" xmlns="http://www.w3.org/2000/svg" xmlns:xlink="http://www.w3.org/1999/xlink" x="0px" y="0px"
	 width="100px" height="100px" viewBox="0 0 100 100" style="enable-background:new 0 0 100 100;" xml:space="preserve">
<g>
	<path style="fill:#1D1D1B;" d="M95.915,20.779c0.11-1.28-0.651-2.618-2.304-2.561c-28.9,0.995-58.159-3.757-86.974-1.002
		c-1.857,0.178-2.59,2.019-2.194,3.374c1.173,17.495,1.974,35.009,2.394,52.538c0.005,0.23,0.044,0.437,0.098,0.632
		c0.095,1.119,0.858,2.172,2.307,2.173c10.355,0.012,20.709,0.173,31.062,0.353v9.467c0,0.071,0.015,0.132,0.02,0.2h-3.327
		c-3.102,0-3.102,4.81,0,4.81h33.066c3.102,0,3.102-4.81,0-4.81h-2.18c-0.242-3.076-0.306-6.156-0.319-9.24
		c8.681,0.097,17.363,0.132,26.046,0.022c0.241-0.003,0.457-0.043,0.66-0.1c1.11-0.104,2.145-0.866,2.145-2.305
		c0-17.636-0.017-35.273-0.401-52.906C96.011,21.19,95.971,20.979,95.915,20.779z M45.094,85.954c0.005-0.068,0.02-0.129,0.02-0.2
		V76.37c5.88,0.104,11.761,0.199,17.641,0.279c0.012,3.106,0.076,6.207,0.319,9.304H45.094z M14.979,67.973
		c-0.338-14.272-0.944-28.531-1.814-42.777c21.799-1.879,53.616,1.665,75.473,1.102c0.268,14.122,0.296,28.246,0.298,42.371
		C67.521,68.906,36.393,68.048,14.979,67.973z"/>
	<path style="fill:#1D1D1B;" d="M86.25,32.5c0-0.871-0.394-1.607-1.086-2.041c-0.444-0.599-1.114-0.938-1.901-0.959
		c-19.29-0.511-39.048-1.52-58.726-2.999c-0.907-0.065-1.628,0.281-2.067,0.959c-0.443,0.688-0.511,1.64-0.18,2.456
		c0.016,0.373,0.112,0.733,0.288,1.073c5.301,10.26,13.96,15.832,28.077,18.064l2.257,0.352
		c11.335,1.753,22.043,3.408,28.406,14.194c0.112,0.491,0.367,0.916,0.744,1.235c0.443,0.586,1.078,0.909,1.796,0.909
		c0.898,0,1.79-0.507,2.27-1.292c0.423-0.692,0.466-1.513,0.121-2.27V32.5z M81.25,34.438v20.821
		c-5.037-5.218-11.895-8.378-21.452-9.908l-2.184-0.345c-11.779-1.85-21.996-3.455-28.72-13.198
		C46.516,33.069,64.122,33.953,81.25,34.438z"/>
</g>
</svg>
