<?xml version="1.0" encoding="utf-8"?>
<!-- Generator: Adobe Illustrator 17.1.0, SVG Export Plug-In . SVG Version: 6.00 Build 0)  -->
<!DOCTYPE svg PUBLIC "-//W3C//DTD SVG 1.1//EN" "http://www.w3.org/Graphics/SVG/1.1/DTD/svg11.dtd">
<svg version="1.1" id="Capa_1" xmlns="http://www.w3.org/2000/svg" xmlns:xlink="http://www.w3.org/1999/xlink" x="0px" y="0px"
	 viewBox="0 199.9 595.3 478" enable-background="new 0 199.9 595.3 478" xml:space="preserve">
<g>
	<path fill="#FFFFFF" d="M564.3,249.5c-0.6-8.9-6.5-17.9-17.9-17.3c-164.3,5.4-328.6-12.5-491.7,13.1c-13.7,2.4-16.1,15.5-11.3,25
		v0.6c-1.2,2.4-1.2,5.4-1.2,8.3c8.3,113.1,20.2,226.2,31.5,339.3c0,1.2,0.6,2.4,0.6,3.6c0,9.5,6,19,18.5,18.5
		c153-6,306-0.6,458.4-15.5c1.2,0,2.4-0.6,3.6-0.6c8.9-0.6,17.9-6.5,18.5-17.9c4.2-117.3-3-234.5-7.7-351.8
		C564.9,252.5,564.9,250.7,564.3,249.5z M535.8,473.9c-25.6-36.9-54.2-70.8-84.5-104.2c27.4-18.5,53.6-38.7,78.6-60.1
		C532.2,364.4,534.6,419.2,535.8,473.9z M517.9,270.3c-59.5,54.2-126.8,97-199.4,132.7c-72.6-36.3-138.7-83.3-206.6-128
		C247,260.8,382.8,272.7,517.9,270.3z M81.6,300.1c36.3,23.2,72,48.2,107.7,71.4c-30.4,50-63.1,98.8-87.5,151.8
		C94.6,448.9,86.9,374.5,81.6,300.1z M535.8,588.2c-141.1,12.5-282.8,8.9-423.8,13.7c1.8-1.8,3-4.2,3.6-7.1
		c20.8-75,66.1-137.5,106-203c26.8,16.7,54.2,32.1,82.7,46.4c0.6,0,0.6,0,1.2,0.6c5.4,4.8,13.1,6.5,21.4,3
		c31.5-15.5,62.5-32.1,92.3-50.6c43.5,47,83.9,95.8,115.5,152.4c0.6,0.6,1.2,1.8,1.8,2.4C536.3,559.6,536.3,573.9,535.8,588.2z"/>
</g>
</svg>
