<?xml version="1.0" encoding="iso-8859-1"?>
<!-- Generator: Adobe Illustrator 17.0.2, SVG Export Plug-In . SVG Version: 6.00 Build 0)  -->
<!DOCTYPE svg PUBLIC "-//W3C//DTD SVG 1.1//EN" "http://www.w3.org/Graphics/SVG/1.1/DTD/svg11.dtd">
<svg version="1.1" id="Capa_1" xmlns="http://www.w3.org/2000/svg" xmlns:xlink="http://www.w3.org/1999/xlink" x="0px" y="0px"
	 width="100px" height="100px" viewBox="0 0 100 100" style="enable-background:new 0 0 100 100;" xml:space="preserve">
<g>
	<path style="fill:#1D1D1B;" d="M23.064,86.596c0.282,1.225,1.312,1.953,2.545,1.833c12.128,1.765,21.405,2.552,30.073,2.552
		c0.001,0,0.001,0,0.002,0c10.41,0,19.504-1.182,27.801-3.614c1.377-0.404,1.877-1.607,1.773-2.659
		c0.045-0.178,0.072-0.35,0.081-0.523c0.655-12.688,1.446-26.24,2.418-41.429c0.676-10.561-0.573-32.784-4.131-36.655
		c-0.342-0.373-0.712-0.596-1.102-0.666c-0.059-0.059-0.129-0.12-0.238-0.213c-0.556-0.466-1.244-0.643-1.912-0.494
		c-9.326-0.006-18.807-0.067-27.977-0.126c-9.311-0.061-18.939-0.123-28.41-0.127c-0.314,0-0.614,0.051-0.894,0.152
		c-1.241-0.136-2.355,0.517-2.809,1.659c-4.839,12.174-3.914,26.568-3.099,39.268C18.104,59.831,20.082,73.639,23.064,86.596z
		 M24.49,9.55c9.304,0.006,18.757,0.067,27.902,0.126c8.874,0.057,18.044,0.116,27.074,0.125c2.896,8.788,3.789,25.824,2.947,36.766
		c-0.611,7.94-1.013,15.969-1.402,23.733c-0.211,4.21-0.422,8.426-0.667,12.657c-7.475,1.992-15.629,2.961-24.913,2.961
		c-8.042,0-16.893-0.73-27.829-2.297c-2.625-11.836-4.374-24.314-5.344-38.133C21.494,34.587,20.544,21.048,24.49,9.55z"/>
	<path style="fill:#1D1D1B;" d="M29.708,74.074c0.275,1.195,1.289,1.945,2.501,1.866c9.11,1.323,16.089,1.914,22.618,1.914
		c0,0,0.001,0,0.001,0c7.882,0,14.773-0.896,21.065-2.741c1.167-0.342,1.866-1.353,1.788-2.552c0.029-0.136,0.047-0.27,0.054-0.405
		c0.493-9.536,1.087-19.716,1.817-31.123c0.502-7.849-0.379-24.864-3.268-28.006c-0.34-0.37-0.688-0.558-0.99-0.647l-0.076-0.07
		c-0.547-0.457-1.226-0.642-1.9-0.516c-6.979-0.005-13.96-0.05-20.939-0.095c-7.122-0.046-14.244-0.092-21.367-0.096
		c-0.26,0-0.51,0.036-0.748,0.107c-1.162-0.07-2.19,0.583-2.614,1.648c-3.688,9.278-2.989,20.168-2.372,29.777
		C25.968,53.896,27.459,64.305,29.708,74.074z M31.837,16.665c6.829,0.006,13.659,0.05,20.488,0.094
		c6.639,0.042,13.278,0.085,19.917,0.093c2.043,6.64,2.663,18.967,2.049,26.955c-0.46,5.979-0.763,12.02-1.056,17.861
		c-0.151,3.008-0.302,6.02-0.474,9.042c-5.445,1.406-11.382,2.09-18.123,2.09c-5.907,0-12.403-0.528-20.395-1.659
		c-1.914-8.738-3.194-17.952-3.909-28.14C29.772,35.001,29.077,25.097,31.837,16.665z"/>
	<path style="fill:#1D1D1B;" d="M53.75,79c-2.579,0-2.579,4,0,4S56.329,79,53.75,79z"/>
</g>
</svg>
